<svg width="57" height="61" viewBox="0 0 57 61" fill="none" xmlns="http://www.w3.org/2000/svg">
<path d="M12.7632 1.25529C15.6331 4.01189 16.4248 4.5564 18.8329 5.39019C19.4596 5.6114 20.2678 5.98575 20.6472 6.20696C21.3234 6.61535 24.5397 9.64421 24.5397 9.86542C24.5397 9.93348 24.2758 10.1207 23.9624 10.2738C23.649 10.4269 23.0882 10.8353 22.7254 11.1927C20.6472 13.1155 20.0534 15.804 21.1585 18.1522L21.6038 19.1051L21.0595 19.5646L20.5152 20.041L20.2513 19.5135C20.0369 19.0711 19.773 18.9009 18.4865 18.4415C17.6453 18.1352 16.6722 17.863 16.3093 17.8289C15.2043 17.7268 15.0228 17.4376 13.4065 13.3707C12.8787 12.0605 12.4168 10.9544 12.3509 10.9034C12.3014 10.8523 12.0705 10.4269 11.8561 9.93348C11.2458 8.5722 9.9263 7.33002 9.08512 7.33002C8.6233 7.33002 8.59031 7.60228 9.01915 7.75542C9.51396 7.90857 10.4541 8.9976 10.7675 9.76332C10.9159 10.1547 11.1138 10.6141 11.1963 10.7673C11.2788 10.9374 11.3448 11.2437 11.3448 11.4649C11.3448 12.0094 13.0766 17.2674 13.5219 18.0672C13.7198 18.4245 14.0662 18.7989 14.2971 18.9009C14.5445 19.003 14.9404 19.3434 15.1878 19.6667C15.4847 20.041 16.1444 20.5005 17.0845 20.9599C17.8762 21.3342 18.5525 21.6916 18.5855 21.7256C18.6185 21.7596 18.1896 22.3042 17.6453 22.9338L16.6392 24.0909L14.7589 24.0228C12.8127 23.9717 12.2519 24.1079 11.4602 24.8225C11.2953 24.9757 11.0479 25.1118 10.9159 25.1288C10.4706 25.1969 9.86032 25.7074 9.34902 26.4391C8.44187 27.7323 3.54326 35.8149 3.46079 36.1723C3.41131 36.3594 3.32884 36.5466 3.27936 36.5977C3.21338 36.6487 2.98247 37.006 2.73507 37.3804C2.25675 38.1461 1.16817 38.8098 0.392971 38.8098C-0.233788 38.8098 -0.0688516 39.2181 0.590894 39.2862C1.74545 39.4053 3.47728 38.4864 4.05456 37.4315C4.2195 37.1592 4.41742 36.938 4.49989 36.938C4.59885 36.938 5.45652 35.7639 6.39666 34.3515C9.33253 29.9444 11.1138 27.426 11.5262 27.0857C11.8725 26.8134 12.054 26.7794 12.5818 26.9155C12.9446 27.0006 13.5219 27.1027 13.8683 27.1708C14.3796 27.2388 14.495 27.3239 14.4291 27.5451C14.3796 27.6983 14.0992 28.515 13.8188 29.3488C13.3735 30.608 13.2745 31.2036 13.2085 32.8711L13.1096 34.862L12.6148 34.9641C11.8231 35.1343 9.77786 37.3294 9.51396 38.2993C9.3985 38.7247 9.18408 39.2181 9.01915 39.4053C8.30992 40.2221 8.21096 41.4132 8.6233 44.0847C9.1346 47.3859 10.5531 54.907 10.7345 55.2303C10.9489 55.6216 11.0644 56.6086 11.0479 57.6806C11.0314 58.2081 10.8664 58.7015 10.5201 59.2801C10.2397 59.7395 10.0582 60.1649 10.0912 60.216C10.2562 60.3691 11.0149 59.7225 11.4107 59.0929C12.3509 57.6125 12.3509 55.962 11.3612 49.1045C10.3716 42.1279 10.3386 41.6344 10.652 40.7496C10.817 40.2731 11.0149 40.0009 11.1963 40.0009C11.3448 40.0009 11.8396 39.7456 12.3014 39.4223L13.1261 38.8608L13.2415 39.8988C13.7363 44.5442 17.3319 49.3937 23.8799 54.2433C24.6551 54.8219 25.5788 55.6046 25.9416 55.996C26.9477 57.068 27.5745 57.4083 28.5146 57.3743C29.5372 57.3573 29.8506 57.2041 30.9722 56.0811C31.467 55.5876 32.4731 54.7538 33.1988 54.2093C36.3656 51.8951 39.0706 49.3087 40.8519 46.8754C42.4683 44.6803 43.8207 41.2941 43.8372 39.4393C43.8372 38.8778 43.9362 38.8778 44.6619 39.3713C44.9753 39.5925 45.4536 39.8477 45.7175 39.9328C46.0474 40.0519 46.2453 40.2901 46.4103 40.7666C46.7071 41.6004 46.6082 42.6043 45.5856 49.8702C44.7939 55.4855 44.7444 57.1531 45.2722 58.3782C45.5856 59.1269 46.5257 60.25 46.8226 60.25C47.0205 60.25 47.0205 59.7906 46.8061 59.6544C46.7071 59.5864 46.4927 59.2461 46.3113 58.8887C45.9484 58.14 45.8825 56.9659 46.1628 55.9109C46.5587 54.4645 47.4823 49.5979 48.1256 45.6502C48.7359 41.9577 48.7853 41.4302 48.6204 40.6815C48.5214 40.2221 48.2575 39.6776 48.0596 39.4564C47.8452 39.2352 47.6308 38.8098 47.5813 38.5035C47.4329 37.7548 46.9051 37.006 45.701 35.866C45.0083 35.2194 44.53 34.8961 44.2496 34.8961C43.8372 34.8961 43.8372 34.8961 43.8372 33.2285C43.8372 31.4078 43.5569 29.9784 42.9301 28.4299C42.6992 27.8684 42.5178 27.375 42.5178 27.3409C42.5178 27.2899 42.8641 27.2048 43.3094 27.1537C43.7383 27.0857 44.3321 26.9666 44.6289 26.8645C45.4536 26.6092 45.4701 26.6262 50.3192 33.8751C51.8532 36.1723 52.282 36.7168 53.684 38.2142C54.2942 38.8438 55.5972 39.3713 56.3889 39.2862C57.0487 39.2181 57.2466 38.8098 56.6198 38.8098C56.0096 38.8098 55.0034 38.2312 54.4921 37.5846C54.2447 37.2783 53.9314 36.8869 53.7994 36.7168C53.6675 36.5636 53.5685 36.3254 53.5685 36.1893C53.5685 36.0702 52.6613 34.4877 51.5728 32.667C47.6473 26.2008 47.07 25.3841 46.1464 25.1118C45.9154 25.0438 45.5856 24.8566 45.4041 24.6864C44.7939 24.1079 44.1506 23.9717 42.2374 24.0228L40.3901 24.0738L39.3675 22.9338C38.8067 22.3042 38.3778 21.7596 38.4108 21.7256C38.4438 21.6916 39.1036 21.3513 39.8788 20.9769C40.8024 20.5345 41.4951 20.0751 41.9075 19.6156C42.2539 19.2243 42.6332 18.9009 42.7652 18.9009C42.8971 18.9009 43.194 18.6117 43.4084 18.2543C43.9032 17.4886 45.8825 11.499 45.734 11.2437C45.668 11.1416 45.6845 10.9715 45.767 10.8523C45.8495 10.7332 46.0474 10.2908 46.2123 9.8484C46.4762 9.11671 47.103 8.38502 48.1256 7.6193L48.5379 7.31301L47.9112 7.39809C46.8556 7.53422 45.3052 9.06566 45.0413 10.2057C44.9918 10.444 44.8434 10.7673 44.7279 10.9034C44.6124 11.0395 44.0352 12.3838 43.4249 13.8812C42.0064 17.4206 41.759 17.7949 40.8189 17.846C39.9282 17.88 37.0584 18.9009 36.8934 19.2413C36.8274 19.3774 36.7285 19.6497 36.6625 19.8198C36.58 20.1261 36.5141 20.0921 36.0028 19.5816L35.442 19.0201L35.8708 18.1522C36.4811 16.9101 36.58 15.0894 36.0852 13.7621C35.6729 12.588 34.5348 11.2437 33.2813 10.4269L32.3906 9.83138L33.9411 8.31695C35.9203 6.39414 36.4316 6.05382 38.5263 5.27108C40.489 4.53939 41.5776 3.85874 43.1445 2.3273C43.7548 1.74875 44.5465 0.983028 44.9093 0.642707C46.1464 -0.514386 45.2062 0.0131123 43.8207 1.25529C41.957 2.92286 40.2581 3.97786 38.4438 4.59044C37.6026 4.87971 36.646 5.27108 36.2996 5.45825C34.5678 6.44519 33.6607 7.07478 32.6875 7.9426L31.6484 8.8955L31.0876 8.28292C30.7743 7.9426 30.263 7.55123 29.9331 7.4151C28.6301 6.85357 26.8323 7.27897 25.8757 8.368L25.3973 8.91252L24.3912 7.99365C22.7419 6.49623 20.5482 5.20301 18.6844 4.62447C17.068 4.131 15.1548 2.95689 13.357 1.3744C12.5158 0.625691 11.7406 0.0131123 11.6416 0.0131123C11.5427 0.0131123 12.0375 0.574643 12.7632 1.25529Z" fill="white"/>
</svg>
